<?xml version="1.0" encoding="utf-8"?>
<!-- Generator: Adobe Illustrator 23.1.0, SVG Export Plug-In . SVG Version: 6.00 Build 0)  -->
<svg width="160" version="1.1" id="Layer_1" xmlns="http://www.w3.org/2000/svg" xmlns:xlink="http://www.w3.org/1999/xlink" x="0px" y="0px"
	 viewBox="0 0 102.9 25.1" style="enable-background:new 0 0 102.9 25.1;" xml:space="preserve">
<style type="text/css">
	.st0{fill:#FFFFFF;}
	.st1{fill:#52B959;}
</style>
<title>21 06 10 - logo fonts for Kate 01</title>
<g>
	<path class="st0" d="M8.5,7.7C8.2,7.8,8,7.5,7.7,7.5C7.1,7.5,6.5,7.4,6,7.4C5.7,7.7,6,8.2,5.8,8.5c0,0.5-0.1,1.1-0.3,1.6
		c0,0.6-0.1,1.2-0.2,1.8c-0.2,0.9,0,1.9-0.2,2.8C5,15,5.2,15.2,5.2,15.5c0,0.3,0,0.5,0.2,0.8c0,0.3,0.1,0.5,0.2,0.8
		c0.1,0,0.3,0,0.4,0c0.2,0.3,0.5,0.2,0.8,0.3s0.5,0.3,0.6,0.5c0,0.2,0.1,0.4,0.1,0.6C7.5,18.7,7.2,18.8,7,19
		c-0.4,0.1-0.8,0.2-1.2,0.2c-0.3,0-0.5-0.2-0.7-0.2c-0.3,0-0.5-0.2-0.7-0.4c-0.1-0.2-0.4-0.1-0.4-0.3c-0.1-0.2-0.3-0.3-0.6-0.4
		c-0.1-0.2-0.3-0.3-0.4-0.5c-0.1-0.3-0.2-0.6-0.3-0.9c-0.2-0.3-0.1-0.6-0.3-0.9C2.1,14.8,2,13.9,2,13.1c0-0.4,0-0.9,0-1.4
		c0.1-0.9,0.2-1.8,0.3-2.7c0.1-0.5,0.1-1,0.2-1.5c-0.6-0.3-1.3,0.2-1.8,0C0.4,7.5,0.3,7.3,0.1,7.1c0-0.3-0.3-0.4-0.2-0.7
		c-0.1-0.7,0.2-1.4,0.7-1.9C1,4.4,1.3,4.3,1.6,4.3c0.4,0,0.7-0.1,1.1-0.1C2.8,4.2,3,4.1,3.1,4c0-0.9,0.1-1.8,0.2-2.7
		c-0.1-0.2,0-0.4,0-0.6c0,0,0-0.1,0-0.1l0.2-0.1l0.1-0.1c0.2-0.1,0.5-0.1,0.7-0.2c0,0,0.1,0,0.1,0h0.2c0,0,0.1,0.1,0.1,0.1
		c0.1,0,0.3,0,0.4,0l0.4,0.1C5.5,0.7,5.9,0.7,6,0.9s0.2,0.4,0.3,0.5c0.1,0.4,0.1,0.9,0,1.4c0.1,0.4-0.1,0.8-0.1,1.1
		c0,0.1,0.1,0.2,0.2,0.3c0.5,0.1,0.9,0.1,1.4,0.2c0.2,0.1,0.3,0.4,0.5,0.5C8.7,5.3,9,5.9,9,6.4C9,6.9,8.9,7.3,8.5,7.7z"/>
	<path class="st0" d="M13,5.7c0.1,0.1,0.2,0.4,0.3,0.2c0,0.3,0.4,0.3,0.3,0.6c0.1,0.3,0.1,0.6,0,0.9c0.1,0.2-0.1,0.3,0,0.6
		c0.1,0.4-0.1,0.8,0,1.2c-0.1,0.7-0.1,1.4-0.1,2.1c-0.1,0.3,0.1,0.6,0,1c0,1.1,0,2.2,0,3.4c-0.1,0.3,0.1,0.6,0,0.9
		c0.1,0.6,0.1,1.3,0.2,1.9c0,0.2-0.1,0.4-0.3,0.5c-0.2,0.1-0.2,0.5-0.5,0.4c-0.3,0-0.7,0-1,0c-0.2-0.2-0.4-0.4-0.6-0.4
		c-0.5-0.4-0.6-1-0.9-1.5c0-0.5-0.2-1-0.2-1.5c-0.1-1.6-0.2-3.1-0.1-4.7c0-0.3,0-0.7,0-1c0.1-0.8,0.1-1.5,0.1-2.3
		c0.1-0.7,0.2-1.5,0.1-2.3c-0.1-0.2,0.1-0.2,0.3-0.3C11.5,5.1,12.3,5.2,13,5.7z M12.4,0.3c0.3-0.2,0.5,0.2,0.8,0.1
		c0.4,0.2,0.8,0.4,1.1,0.7c0.3,0.3,0.5,0.8,0.3,1.3c-0.2,0.2-0.3,0.3-0.4,0.5C14,3,13.6,2.9,13.4,3c-0.2,0.1-0.6-0.2-0.9-0.2
		c-0.4-0.2-0.8-0.5-1.2-0.8c-0.4-0.4-0.7-1-0.8-1.6c0.1-0.1,0.2-0.1,0.3-0.1C11.4,0.4,11.9,0.4,12.4,0.3L12.4,0.3z"/>
	<path class="st0" d="M30.8,8.4c-0.1,0.3-0.1,0.6-0.1,0.9c-0.1,0.4-0.1,0.8-0.1,1.1c-0.1,0.4-0.1,0.8-0.1,1.2
		c-0.1,0.5-0.2,0.9-0.3,1.4c0,0.8-0.3,1.6-0.3,2.3c-0.1,0.4-0.1,0.8-0.1,1.3c-0.1,0.7,0,1.5-0.4,2.1c-0.1,0-0.2,0.1-0.2,0.2
		C29,19,28.9,19.1,28.7,19s-0.7,0-1.1-0.1c-0.1-0.1-0.3-0.2-0.4-0.4c0-0.1-0.1-0.2-0.1-0.2c-0.1-0.2-0.2-0.3-0.3-0.5
		c-0.1-0.3-0.2-0.6-0.3-0.9c0-0.9,0-1.7,0.1-2.6c0-1,0.2-2.1,0.4-3.1c0-0.6,0.3-1.2,0.3-1.8c0.2,0,0.1-0.1,0.1-0.3
		c0-0.3,0.1-0.7,0.2-1c-0.1-0.1-0.2-0.1-0.2,0c0,0,0,0,0,0c-0.3,0.3-0.6,0.7-0.8,1.2c-0.5,0.4-0.8,0.9-1.3,1.3
		c-0.1,0.2-0.1,0.4-0.1,0.6c-0.1,0.1-0.1,0.3,0,0.5c-0.1,0.4,0,0.8-0.2,1.1c0.1,0.3-0.2,0.5-0.1,0.7s-0.1,0.5-0.1,0.7
		s-0.3,0.5-0.1,0.8s-0.1,0.6-0.1,0.9c0,0.7-0.1,1.4-0.1,2c-0.2,0.3,0,0.8-0.3,1c-0.2,0.4-0.7,0.4-1.1,0.4c-0.3-0.2-0.8-0.1-1-0.4
		c0-0.2-0.1-0.2-0.3-0.3s-0.2-0.2-0.3-0.4c0-0.5-0.5-0.8-0.4-1.2c0-0.5,0.1-1.1,0.1-1.6c0-0.7,0.1-1.4,0.1-2.1
		c0-0.9,0.3-1.7,0.3-2.6c0.1-0.5,0.1-1,0-1.6c0.1-0.3,0.1-0.7,0-1c-0.5,0.2-0.5,0.8-0.9,1.1c-0.4,0.5-0.7,1-1.1,1.5
		c-0.2,0.3-0.5,0.5-0.6,0.8c0,0.7,0,1.4,0,2c0.1,0.3,0,0.6,0,0.9s0,0.3-0.1,0.5c0.1,0.4,0,0.8,0,1.2c0.1,0.7,0.1,1.4,0,2.1
		c-0.2,0.1-0.3,0.3-0.3,0.5c-0.5,0.1-1.1,0.1-1.6,0c-0.1-0.2-0.3-0.3-0.5-0.5s-0.4-0.3-0.4-0.5c-0.2-0.3-0.4-0.7-0.3-1.1
		c-0.2-0.3,0-0.6-0.1-1c-0.1-0.7-0.1-1.4,0-2.1c0-1.4,0.1-2.8,0.1-4.2c0.1-0.3,0.1-0.7,0-1C16,7.3,16,6.4,16.1,5.4
		c0-0.1,0.1-0.1,0.1-0.1c0.2,0,0.5,0,0.7,0c0.1,0.2,0.5,0.3,0.6,0.6c0.5,0.1,0.8,0.5,1.3,0.7c0.2,0.4,0.3,0.7,0.4,1.1
		c-0.1,0.1-0.1,0.3-0.1,0.4c0.8-0.7,1.2-1.8,2.2-2.3c0.5-0.2,1.1-0.3,1.7-0.2c0.6,0.1,1.2,0.3,1.7,0.8C24.9,6.5,25,6.8,25.1,7
		c0,0.1,0.1,0.3,0.2,0.3c0.3-0.3,0.5-0.7,0.9-1c0.2-0.1,0.3-0.3,0.4-0.5c0.2-0.2,0.5-0.2,0.6-0.4c0,0,0.1,0,0.1-0.1
		c0.5-0.1,0.9-0.1,1.4-0.1l0,0c0.4,0.1,0.8,0.3,1.3,0.4c0.2,0.2,0.4,0.5,0.6,0.7s0.2,0.6,0.3,0.8c0,0.3,0,0.5,0,0.8
		C31.1,8.1,30.9,8.2,30.8,8.4z"/>
	<path class="st0" d="M33.5,17.9c-0.1-0.1-0.2-0.2-0.3-0.3c-0.3-0.5-0.5-1-0.7-1.6c-0.1-0.3,0-0.7-0.2-1c-0.1-1-0.1-2.1,0-3.1
		c0.1-0.4,0.2-0.8,0.2-1.2c0.2-0.1,0.1-0.5,0.2-0.6c0.1-0.1,0.2-0.3,0.2-0.5C32.9,9.4,33,9.3,33,9.1c0.2-0.3,0.3-0.6,0.3-0.9
		c0.3-0.7,0.7-1.3,1.2-1.9C34.6,6.1,35,6.1,35,5.8c0.4-0.1,0.9-0.2,1.3-0.2c0.2-0.1,0.3-0.1,0.5,0c0.3,0.1,0.5,0.2,0.8,0.2
		C37.6,6,37.8,6,38,6.1c0.2,0.1,0.4,0.2,0.5,0.4c0.1,0.6,0.7,1,0.6,1.7c0,0.2-0.3,0.4-0.2,0.6S38.8,9,38.8,9
		c0.1,0.4-0.2,0.6-0.5,0.9c-0.7,0.5-1.5,0.8-2.4,0.9c-0.2,0-0.3,0.3-0.4,0.4c-0.3,0.3-0.3,0.8-0.4,1.2s-0.2,1-0.3,1.5
		c0,0.6,0,1.1,0.1,1.7c0,0.4,0.1,0.9,0.4,1.3c0.2,0.3,0.6,0.3,0.8,0.6c0.2,0,0.5,0.3,0.7,0c0.3-0.3,0.8-0.4,1.2-0.4
		c0.3,0.3,0.5,0.7,0.4,1.1c-0.2,0.2-0.4,0.3-0.6,0.5l-0.1,0.1c-0.1,0-0.1,0.1-0.2,0.1c-0.2,0-0.4,0-0.7,0c-0.1,0.1,0,0.4-0.4,0.3
		c-0.1,0-0.2,0.1-0.3,0.1c-0.4-0.1-0.8-0.2-1.2-0.2c-0.3-0.4-0.8-0.5-1.1-0.8C33.8,18.1,33.6,18,33.5,17.9z M36.5,9.3
		c0.3,0,0.5-0.3,0.8-0.5c0.2-0.3,0.3-0.6,0.4-0.9c0-0.2,0.1-0.4-0.1-0.5c-0.2,0.4-0.4,0.7-0.6,1.1C36.7,8.8,36.6,9,36.5,9.3z"/>
</g>
<g>
	<path class="st1" d="M51.9,6.8c0,0.2-0.1,0.4,0,0.6s-0.1,0.3-0.1,0.5s0,0.5-0.2,0.6s0,0.5-0.3,0.6c-0.1,0.2-0.2,0.4-0.4,0.6
		c-0.1,0.3-0.4,0.5-0.5,0.8c-0.2,0.3-0.4,0.6-0.7,0.9c0,0.3-0.6,0.3-0.5,0.6c-0.2,0.1-0.3,0.3-0.5,0.4c-0.3,0.2-0.5,0.5-0.9,0.6
		s-0.5,0.4-0.7,0.6s-0.4,0.2-0.5,0.4c-0.6,0.3-1,0.9-1.6,1.2c-0.1,0.1-0.2,0.2-0.2,0.3c0.1,0.2,0.4-0.1,0.5,0c0.4,0,0.8-0.1,1.1,0.1
		c0.2,0,0.3,0,0.5,0c0.2,0,0.4-0.1,0.6,0c0.3,0.2,0.7,0,1.1,0.2c0.3,0.2,0.5,0.4,0.7,0.7c0.2,0.3,0.2,0.8,0.5,1c0,0.3,0,0.6,0,0.9
		l0,0c0,0,0,0,0,0.1l0,0c-0.1,0.1,0,0.4-0.2,0.4c-0.4,0.3-1,0-1.5,0.1c-0.6-0.2-1.3,0.1-1.9-0.3C45.8,19,45.3,19,44.9,19
		c-0.3,0.1-0.7,0-0.9,0.3c-0.2-0.1-0.4,0.1-0.7,0.1c-0.3,0.1-0.6,0.2-0.8,0.4c-0.2,0.1-0.4-0.1-0.5-0.2s-0.3-0.1-0.4-0.3
		s-0.2-0.4-0.5-0.5c0-0.3-0.5-0.4-0.5-0.7s-0.4-0.3-0.3-0.6c0-0.3,0-0.7,0-1c0-0.3,0.2-0.5,0.3-0.8c0.1-0.3,0.2-0.5,0.4-0.8
		c0.2-0.2,0.4-0.4,0.5-0.7c0.1-0.2,0.2-0.3,0.4-0.4c0.6-0.4,1-1,1.6-1.4c0.2-0.1,0.4-0.3,0.6-0.5c0.5-0.4,1-0.8,1.5-1.2
		c0.7-0.5,1.3-1.1,1.8-1.7c0.5-0.6,1-1.2,1.4-1.9c0.2-0.2,0.3-0.5,0.4-0.8c0.2-0.2,0.2-0.6,0.4-0.9c0.1-0.7,0-1.4-0.3-2
		C49,3.2,48.7,3.1,48.5,3c-0.7-0.2-1.3-0.2-2,0c-0.2,0-0.3,0.2-0.4,0.2c-0.2,0-0.4,0-0.6,0.2C45.2,3.5,45,3.8,44.8,4
		s-0.4,0.2-0.5,0.4c-0.3,0.2-0.5,0.5-0.7,0.9c-0.2,0.3-0.3,0.6-0.3,0.9c0,0,0.2-0.1,0.2,0c-0.2-0.2-0.3,0-0.4,0.2S43,6.6,43.1,6.8
		c0.3,0.1,0.5,0.2,0.8,0.3c0.2,0.3,0.7,0.2,0.9,0.6c0,0.2,0.4,0.1,0.3,0.4c0.3,0.5,0.1,1.1-0.4,1.4c0,0,0,0-0.1,0
		c-0.3-0.1-0.5,0.1-0.8-0.1S43.3,9.3,43,9.1c-0.1-0.2-0.3-0.3-0.5-0.4c-0.6-0.3-1-0.8-1.4-1.3C41,7.2,41,7,40.8,6.9
		c0-0.2-0.1-0.4-0.2-0.6c-0.1-0.6-0.1-1.2,0-1.8c0.2-0.2,0-0.6,0.3-0.8c0.1-0.2,0.2-0.4,0.4-0.5c-0.1-0.2,0.1-0.4,0.2-0.6
		C41.8,2.4,42,2,42.3,1.8c0.2-0.3,0.5-0.5,0.9-0.7c0.1-0.1,0.4-0.4-0.1-0.2V0.8c0.2,0,0.5,0,0.7,0c0.2-0.2,0.5-0.2,0.7-0.3
		s0.5-0.1,0.6-0.3c0.1-0.1,0.2-0.1,0.4,0c1-0.1,2,0.1,3,0.5C48.8,0.8,49,1,49.3,1c0.1,0,0.1,0.1,0.1,0.1c0.1,0.1,0.3,0.2,0.4,0.2
		c0.4,0.4,0.8,0.9,1.2,1.4c0.1,0.1,0.2,0.3,0.3,0.5c0,0.1,0,0.2,0.2,0.3c0.2,0.3,0.2,0.7,0.3,1c0.1,0.1,0,0.3,0,0.4
		c0.1,0.3,0.1,0.5,0.1,0.8C52,5.8,51.8,6.2,52,6.3v0.1C51.9,6.4,51.8,6.6,51.9,6.8z"/>
</g>
<g>
	<path class="st0" d="M61.8,9.8c-0.1,0.3-0.2,0.6-0.4,0.9c-0.4,0.3-0.6,0.6-1,0.9c-0.2,0.3-0.5,0.1-0.7-0.1
		c-0.4-0.1-0.6-0.5-0.8-0.8c0-0.2-0.1-0.5,0-0.7s-0.2-0.6,0-1c0-0.1,0.3-0.1,0.3-0.3c-0.3,0-0.6-0.2-0.9-0.2c-0.2,0-0.3,0.1-0.5,0.1
		c-0.2,0.2-0.5,0.2-0.8,0.3s-0.3,0.2-0.5,0.3c-0.2,0.1-0.4,0.2-0.6,0.3c-0.2,0.2-0.5,0.4-0.5,0.7c0.7,0.2,1.5,0.4,2.2,0.7
		c0.3,0.2,0.7,0.3,1,0.5c0.2,0.2,0.4,0.3,0.7,0.5c0,0.2,0.3,0.3,0.4,0.4c0.5,0.6,0.9,1.2,1.3,1.8c0.1,0.3,0.2,0.7,0.3,1
		s-0.1,0.6,0,1c0,0.4-0.2,0.9-0.4,1.2c-0.1,0.1-0.1,0.2-0.3,0.3c0,0.1,0,0.2-0.2,0.3s-0.2,0.3-0.4,0.4s-0.5,0.3-0.8,0.5
		c-0.6,0.2-1.2,0.4-1.9,0.5c-0.1,0-0.3-0.2-0.4,0c-0.3,0.1-0.6,0.1-0.9,0.1c-0.4-0.1-0.9-0.2-1.3-0.4c-0.2-0.1-0.3-0.3-0.5-0.4
		c-0.3-0.3-0.7-0.5-0.9-0.9c-0.3-0.7-0.3-1.4-0.1-2.1c0-0.2,0.3-0.3,0.4-0.4c0.1,0.1,0.3,0.3,0.4,0.4c0.5,0.5,1.2,0.7,1.9,0.6
		c0.9,0,1.8-0.2,2.6-0.7c0.2-0.1,0.5-0.3,0.5-0.6c-0.1-0.2-0.3-0.3-0.4-0.5c-0.2-0.1-0.5-0.1-0.7-0.3c-0.5-0.1-0.9-0.4-1.4-0.4
		s-1-0.5-1.6-0.5c-0.2-0.2-0.6-0.2-0.6-0.5c-0.2-0.1-0.2-0.3-0.3-0.4c-0.2-0.3-0.3-0.7-0.5-1c-0.3-1-0.2-2,0.1-3
		c0.3-0.6,0.6-1.1,1.1-1.6c0.4-0.2,0.7-0.4,1.1-0.6c-0.2-0.2,0.3-0.1,0.4-0.1c0.3-0.2,0.7-0.2,1.1-0.4c0.5-0.1,1,0.1,1.5,0.1
		c0.2,0.1,0.4,0.2,0.6,0.3c0.1,0,0.1,0,0.2,0.1c0,0,0.1,0.1,0.2,0.1c0,0,0,0,0.1,0.1l0,0c0.4,0.2,0.5,0.6,0.9,0.8
		c0.4,0.4,0.7,0.9,0.9,1.4C61.8,8.7,61.8,9.3,61.8,9.8z"/>
	<path class="st0" d="M72.6,11.7c0,0.4-0.1,0.8-0.1,1.1c-0.1,0.4,0,0.8-0.2,1.1c-0.1,0.3-0.2,0.7-0.3,1c-0.3,0.3-0.3,0.8-0.6,1
		c-0.2,0.4-0.4,0.7-0.7,1c-0.3,0-0.4,0.3-0.7,0.4c-0.2,0.1-0.5,0.2-0.8,0.1c-0.1-0.1-0.1-0.1-0.2-0.1c-0.1,0-0.1,0-0.2,0
		c-0.1,0-0.2,0-0.2,0c-0.1-0.1-0.3,0-0.4-0.1c-0.3-0.1-0.6-0.1-0.8-0.4c-0.3,0-0.3-0.4-0.5-0.5S66.8,16,66.6,16s-0.1-0.1-0.1-0.2
		c0.2-0.2,0.5-0.1,0.8-0.1c0.4,0,0.7-0.1,1-0.4c0.2-0.3,0.4-0.7,0.5-1.1c0.3-0.5,0.4-1,0.5-1.6c0.1-0.2-0.1-0.4,0-0.6
		c0-0.8,0.2-1.6,0.1-2.4c0-0.5,0-1.1,0.1-1.6c0-0.2,0-0.4,0-0.6c-0.2,0-0.5,0-0.7,0.1c-0.4,0.3-0.8,0.7-1,1.1
		c-0.4,0.3-0.7,0.7-0.9,1.1c-0.2,0.3-0.9,0.1-0.7,0.6c-0.1,0.3,0.1,0.6-0.1,0.9v2.7c-0.2,0.3,0,0.5-0.1,0.8s0.1,0.2,0,0.4
		c-0.1,0.3,0.1,0.6,0,0.9c0,0.3,0,0.7,0,1c-0.1,0.3,0.2,0.6,0,0.9s0,0.7,0,1.1c0,0.8,0.1,1.6,0.2,2.4c0.2,0.6,0.1,1.3,0.3,1.9
		c0.1,0.3,0.1,0.6,0.2,0.9l0,0c0,0,0,0.1,0,0.1v0c-0.1,0.2,0,0.5-0.2,0.6c-0.4,0.2-0.8,0.3-1.2,0.4c-0.3-0.2-0.6-0.1-0.9-0.3
		c-0.1-0.3-0.3-0.5-0.6-0.8c0-0.1,0-0.1-0.1-0.2c0-0.1,0-0.2,0-0.3c0-0.1-0.1-0.3-0.2-0.4c0-0.2-0.1-0.4-0.1-0.6
		c0-0.5-0.1-1.1,0-1.6c-0.2-0.7-0.1-1.4-0.3-2.1c0-0.4-0.1-0.9-0.1-1.3c-0.1,0-0.1-0.1,0-0.1c0-1.1,0-2.1-0.1-3.2
		c0.1-0.6,0-1.2,0.1-1.7c0-0.8-0.1-1.6,0-2.4C63,9.7,63.1,9.3,63,8.9c0-1,0.1-2,0.2-2.9c0-0.2,0.3-0.2,0.2-0.3l0.7-0.1
		c0.6-0.2,1.1,0.2,1.7,0.2c0,0.1,0.2,0.2,0.3,0.3c0.2,0.1,0.3,0.3,0.3,0.5c0.2,0.1,0.2,0.5,0.2,0.7c0.2-0.2,0.4-0.4,0.7-0.6
		c0.2,0,0.3-0.1,0.4-0.3c0.1,0,0.2,0,0.3-0.1C68.2,6,68.5,6,68.7,5.9c0.5,0,0.9,0,1.4,0c0.3,0,0.5,0,0.8,0.1c0,0,0.1,0,0.1,0.1
		c0.4,0.1,0.7,0.3,0.9,0.6c0,0.1,0.2,0.1,0.3,0.3s0.3,0.3,0.3,0.6c0.3,0.3,0.2,0.8,0.4,1.2c-0.2,0.2,0,0.4,0,0.7
		c0,0.1-0.1,0.2-0.1,0.4c0.1,0.3-0.1,0.6,0,0.9S72.6,11.3,72.6,11.7z"/>
	<path class="st0" d="M75.2,17.9c-0.1-0.1-0.2-0.2-0.3-0.3c-0.3-0.5-0.5-1-0.7-1.5c-0.1-0.3-0.1-0.7-0.2-1c-0.1-1-0.1-2.1,0-3.1
		c0.1-0.4,0.2-0.8,0.2-1.2c0.2-0.1,0.1-0.5,0.2-0.6c0.1-0.1,0.2-0.3,0.1-0.5c0.1-0.2,0.1-0.3,0.2-0.5c0.2-0.3,0.3-0.6,0.3-0.9
		c0.4-0.7,0.8-1.3,1.3-1.9c0.1-0.2,0.5-0.3,0.5-0.6c0.4-0.1,0.9-0.2,1.3-0.2c0.2-0.1,0.3-0.1,0.5,0c0.3,0.1,0.5,0.2,0.8,0.2
		c0,0.2,0.2,0.3,0.3,0.4c0.2,0.1,0.4,0.2,0.5,0.4c0.1,0.6,0.7,1,0.6,1.7c0,0.2-0.3,0.4-0.2,0.6S80.6,9,80.5,9.1
		c0.1,0.4-0.2,0.6-0.5,0.9c-0.7,0.5-1.5,0.8-2.4,0.9c-0.2,0-0.3,0.3-0.4,0.4c-0.3,0.3-0.3,0.8-0.4,1.2c-0.1,0.4-0.2,1-0.3,1.4
		c0,0.6,0,1.1,0.1,1.7c0,0.4,0.1,0.9,0.4,1.3c0.2,0.3,0.6,0.3,0.8,0.6c0.2,0,0.6,0.3,0.7,0c0.3-0.3,0.8-0.4,1.2-0.4
		c0.3,0.3,0.5,0.7,0.4,1.1c-0.2,0.2-0.4,0.3-0.6,0.5l-0.1,0.1c-0.1,0-0.1,0.1-0.2,0.1c-0.2,0-0.4,0-0.7,0c-0.1,0.1,0,0.4-0.4,0.3
		c-0.1,0-0.2,0.1-0.3,0.1c-0.4-0.1-0.8-0.2-1.2-0.2c-0.3-0.4-0.8-0.5-1.1-0.8C75.6,18.1,75.4,18,75.2,17.9z M78.2,9.3
		c0.3,0,0.5-0.3,0.8-0.5c0.2-0.3,0.3-0.6,0.4-0.9c0-0.2,0.1-0.4-0.1-0.5c-0.2,0.4-0.4,0.7-0.6,1.1C78.4,8.8,78.2,9,78.2,9.3z"/>
	<path class="st0" d="M90.8,12.9c0,0.4-0.1,0.9-0.2,1.3c-0.1,0.4,0,0.8-0.2,1.1s0,0.7-0.1,1.1s0,0.6-0.2,0.9s0.1,0.5-0.1,0.5
		s-0.2,0.4,0,0.5c-0.1,0-0.1,0-0.2,0c-0.1,0.2-0.3,0.3-0.5,0.4c-0.4,0.1-0.8,0.1-1.2,0c-0.2,0.2-0.4,0.3-0.7,0.4c-1,0.1-2,0-2.9-0.3
		c-0.2-0.2-0.5-0.3-0.8-0.4c0,0-0.1,0-0.1,0l0,0c0,0-0.1,0-0.1-0.1c0-0.2-0.2-0.2-0.3-0.3c-0.6-0.6-1-1.4-1.2-2.3
		c-0.1-0.4,0-0.8-0.2-1.1c0.1-0.5,0.2-0.9,0.3-1.4c0.2-0.2,0.3-0.6,0.5-0.8c0-0.1,0.1-0.3,0.2-0.4c0.3-0.2,0.4-0.6,0.7-0.8
		s0.5-0.3,0.7-0.5c0.4-0.4,0.9-0.5,1.4-0.5c0.7-0.1,1.4,0,2,0.2c0.3,0,0.1-0.5,0.2-0.7c0-0.4-0.1-0.8-0.1-1.2
		C87.6,8.2,87.4,7.9,87,8s-0.4,0.4-0.7,0.3c-0.2,0-0.3,0.1-0.4,0.3c-0.3,0.2-0.6,0.3-0.9,0.3c-0.5,0-0.9-0.2-1.3-0.5
		c-0.2-0.3-0.5-0.5-0.7-0.8s0.2-0.4,0.3-0.6c0.1-0.2,0.2-0.4,0.4-0.5c0.2,0,0.4-0.1,0.5-0.2c0.5-0.2,0.9-0.3,1.4-0.4
		c0-0.1,0.1-0.1,0.2-0.1s0.3,0,0.3,0.1c0.2,0.1,0-0.5,0.4-0.1c0.3,0.1,0.7-0.1,0.8,0.2c0.3,0.1,0.6,0.2,0.9,0.4
		c0.2,0,0.4,0.1,0.5,0.3c0.2,0.2,0.6,0.3,0.7,0.6c0.6,0.6,1,1.3,1.1,2.1C90.9,10.5,91,11.7,90.8,12.9z M87.6,12.2
		c0-0.1-0.2-0.1-0.2-0.1c-0.4,0.1-0.7,0.3-1,0.5c0,0.3-0.4,0.4-0.7,0.6c-0.4,0.5-0.7,1-1,1.6c-0.3,0.4-0.1,0.9-0.1,1.4
		s0.7,0.8,1.1,0.9c0.2-0.1,0.5-0.2,0.7-0.3c0.2,0,0.3,0,0.4-0.1c0.1-0.4,0.2-0.8,0.2-1.3c0.2-0.8,0.2-1.7,0.4-2.5
		C87.5,12.7,87.8,12.5,87.6,12.2z"/>
	<path class="st0" d="M99.6,13.8c0.1,0.2,0.3,0.4,0.6,0.6c0.6,0.5,1.1,1.1,1.5,1.7c0,0.3,0.2,0.5,0.4,0.7c0.3,0.5,0.4,1.1,0.4,1.7
		c-0.2,0.5-0.9,0.5-1.4,0.5c-0.3-0.1-0.5-0.3-0.7-0.5c-0.2-0.4-0.3-0.7-0.6-1.1c-0.4-0.8-1-1.4-1.6-2c-0.1,0-0.3-0.1-0.4-0.2
		c-0.2,0-0.4-0.1-0.5,0c-0.3,0-0.7,0-1,0c-0.3,0.1-0.4-0.1-0.7-0.1c-0.1-0.2-0.5-0.3-0.3,0.1c0,0.5,0.1,1.1,0.2,1.6
		c0.1,0.3,0.1,0.7,0.1,1c0.1,0.2,0.1,0.4,0,0.5h0.2c-0.2,0.1-0.2,0.4-0.4,0.5c-0.2,0.1-0.3,0.2-0.5,0.3c-0.3,0-0.6,0-0.9,0.1
		c-0.1-0.1-0.3-0.1-0.4-0.2c-0.3-0.1-0.6-0.3-0.7-0.6c0,0,0,0,0-0.1c0,0,0,0,0,0c0-0.3-0.3-0.5-0.4-0.8c-0.2-1.2-0.3-2.3-0.3-3.5
		c0-0.6,0-1.1,0-1.7c-0.1-1.1,0.1-2.1,0-3.3c0-1.1,0.2-2.2,0.2-3.3c0-0.1,0-0.2,0-0.2l0,0c0.1-0.1,0.1-0.2,0-0.3
		c0-1.5,0.2-3,0.5-4.4C93,0.7,93,0.1,93.5,0c0.7,0,1.3,0.3,1.9,0.2c0.1,0.1,0,0.2,0.1,0.2c0.2,0.2,0.6,0.4,0.6,0.7
		c0.2,0.3,0.2,0.7,0,1c-0.1,0.2,0,0.5-0.2,0.8C96,3.5,95.7,4,95.8,4.6c-0.2,0.4-0.2,0.8-0.1,1.2c0,0.1-0.2,0.3-0.1,0.4
		c0,0.5,0,1-0.1,1.5c0,0.1,0.1,0.2,0,0.3s0,0.2,0,0.3s0,0.5,0,0.8c0.2-0.1,0.2-0.3,0.3-0.4c0.4-0.3,0.6-0.8,1-1.1
		c0.5-0.7,1.3-1.2,2.2-1.4c0.6-0.1,1.2,0,1.8,0.2c0.3-0.1,0.3,0.1,0.4,0.3c0.3,0,0.5,0.3,0.6,0.5c0.3,0.2,0.6,0.5,0.7,0.9
		c0.1,0.2,0.1,0.5,0.3,0.7c0.1,0.5,0.1,1-0.1,1.4c0,0.4-0.3,0.6-0.4,1s-0.4,0.4-0.5,0.7s-0.4,0.3-0.5,0.5c-0.2,0.3-0.5,0.6-0.9,0.8
		c0,0.1-0.2,0.2-0.3,0.2c-0.1,0.1-0.2,0.3-0.3,0.3S99.6,13.7,99.6,13.8z M99.7,8.6c0.2-0.2,0.1-0.9-0.3-0.7C99.3,8,99,8,98.8,8
		c-0.2,0.2-0.7,0-0.8,0.3c-0.3,0.2-0.6,0.5-0.9,0.8c-0.4,0.4-0.7,0.8-1,1.3c-0.2,0.4-0.6,0.6-0.8,1s0,0.6-0.1,0.9
		c0.3-0.1,0.6-0.2,0.9-0.3s0.4-0.2,0.6-0.3c0.6-0.3,1.2-0.7,1.7-1.2C99,9.8,99.6,9.4,99.7,8.6L99.7,8.6z"/>
</g>
</svg>
