<svg width="160" fill="none" id="Layer_1" data-name="Layer 1" xmlns="http://www.w3.org/2000/svg" viewBox="0 0 102.94 25.1"><defs><style>.cls-1{isolation:isolate;}.cls-2{fill:#231f20;}.cls-3{fill:#52b959;}</style></defs><title>21 06 10 - logo fonts for Kate 01</title><g class="cls-1"><path class="cls-2" d="M9.07,11c-.33.13-.54-.16-.85-.16-.58,0-1.15-.13-1.72-.15-.26.33,0,.83-.21,1.19A7,7,0,0,1,6,13.46a10.3,10.3,0,0,1-.18,1.82c-.18.93,0,1.87-.16,2.8-.1.26.08.5.06.73a1.45,1.45,0,0,0,.18.78,2.31,2.31,0,0,0,.21.76,3.1,3.1,0,0,1,.44,0c.15.29.54.16.8.26s.5.29.65.52a1.85,1.85,0,0,0,.13.6c-.1.26-.41.36-.62.57a6.23,6.23,0,0,1-1.22.21c-.26,0-.47-.23-.73-.21a1.23,1.23,0,0,1-.73-.41c-.08-.19-.39-.06-.44-.26a1.19,1.19,0,0,0-.57-.39,6.19,6.19,0,0,0-.42-.5,5,5,0,0,0-.34-.91c-.15-.28-.1-.62-.31-.91a13.69,13.69,0,0,1-.18-2.47,10.16,10.16,0,0,0,0-1.35c.13-.88.16-1.79.26-2.68.08-.49.13-1,.21-1.51-.6-.26-1.25.19-1.82,0-.26-.05-.42-.31-.57-.52,0-.26-.29-.41-.18-.7A2.23,2.23,0,0,1,1.2,7.81a3.44,3.44,0,0,1,.91-.2c.36,0,.7-.08,1.06-.06a.44.44,0,0,0,.42-.26,24,24,0,0,1,.23-2.7c-.08-.18,0-.42,0-.6a.24.24,0,0,0,0-.1L4,3.84l.13-.06a4.82,4.82,0,0,1,.68-.15,1.3,1.3,0,0,1,.13,0h.21s.1.08.13.08a1.34,1.34,0,0,1,.44,0l.39.08c-.1.24.31.29.42.47s.23.36.33.54a2.84,2.84,0,0,1,0,1.36c.11.39-.07.75-.05,1.12A.24.24,0,0,0,7,7.55c.47.08.94.08,1.38.19.23.1.31.36.49.54a2.56,2.56,0,0,1,.68,1.48A1.72,1.72,0,0,1,9.07,11Z" transform="translate(-0.52 -3.34)"/><path class="cls-2" d="M13.57,9c.08.13.16.37.34.21,0,.26.36.34.31.63a1.2,1.2,0,0,1,0,.88c.08.18-.1.34,0,.55.15.41-.05.83,0,1.24a18.29,18.29,0,0,0-.13,2.08c-.1.32.05.65,0,1,0,1.12,0,2.24,0,3.36-.15.28.05.57,0,.88.1.6.15,1.25.23,1.87a.77.77,0,0,1-.29.47c-.2.1-.2.47-.54.36a5.61,5.61,0,0,1-1-.05,1.07,1.07,0,0,0-.62-.41c-.47-.37-.55-1-.89-1.46,0-.49-.21-1-.18-1.48a41.16,41.16,0,0,1-.13-4.71,6.54,6.54,0,0,0,0-1,22.29,22.29,0,0,0,.08-2.31,15.6,15.6,0,0,0,.15-2.26c-.05-.18.13-.24.26-.26A3.49,3.49,0,0,1,13.57,9Zm-.7-5.38c.31-.18.49.21.81.11a3.7,3.7,0,0,1,1.11.67,1.26,1.26,0,0,1,.32,1.27,4,4,0,0,0-.42.5c-.21.18-.52.1-.75.16s-.58-.19-.86-.16a4.06,4.06,0,0,1-1.17-.78,3.06,3.06,0,0,1-.81-1.56.72.72,0,0,1,.34-.13A4.28,4.28,0,0,0,12.87,3.6Z" transform="translate(-0.52 -3.34)"/><path class="cls-2" d="M31.36,11.71c-.08.32-.06.63-.11.94a4.44,4.44,0,0,0-.13,1.14A4.27,4.27,0,0,0,31,15a11,11,0,0,0-.29,1.41c0,.78-.26,1.56-.26,2.34A6.94,6.94,0,0,0,30.34,20c-.13.68.05,1.46-.36,2.06a.37.37,0,0,0-.24.2c-.18.06-.33.16-.52.08s-.7,0-1.06-.13a2.75,2.75,0,0,1-.37-.39.67.67,0,0,0-.13-.23,1.38,1.38,0,0,0-.31-.47,4.28,4.28,0,0,0-.34-.86,17.7,17.7,0,0,1,.06-2.62,17.3,17.3,0,0,1,.39-3.1c.05-.6.26-1.19.28-1.82.16,0,.08-.15.08-.26,0-.34.13-.7.16-1a.16.16,0,0,0-.26,0,3.86,3.86,0,0,0-.78,1.17c-.45.39-.81.89-1.25,1.25a.94.94,0,0,0-.11.55.5.5,0,0,0,0,.46c-.13.37,0,.78-.21,1.12.08.26-.21.47-.1.7s-.11.45-.06.71-.26.46-.1.78-.13.62-.1.93c0,.68-.13,1.35-.13,2-.21.31,0,.75-.32,1-.23.39-.7.36-1.09.44-.34-.18-.75-.1-1-.39,0-.16-.15-.23-.26-.31s-.21-.24-.28-.37c0-.46-.47-.78-.39-1.24a14.9,14.9,0,0,1,.13-1.64c0-.7.13-1.38.15-2.08,0-.89.31-1.74.34-2.63a6.27,6.27,0,0,0,0-1.56,2.34,2.34,0,0,0,.05-1c-.46.16-.49.84-.91,1.07-.39.49-.72,1-1.09,1.51-.23.26-.52.47-.57.83-.05.68,0,1.35-.05,2.05.13.32,0,.63.05.94s-.05.34-.1.47c.1.39,0,.8,0,1.22a12.62,12.62,0,0,1,0,2.13,1.24,1.24,0,0,0-.34.5,7.49,7.49,0,0,1-1.64,0c-.08-.24-.34-.34-.49-.52s-.44-.26-.39-.55a1.64,1.64,0,0,1-.31-1.14c-.19-.32,0-.65-.08-1a7.49,7.49,0,0,1,0-2.06c0-1.4.07-2.8.1-4.21a3.12,3.12,0,0,0,0-1c.13-.94.1-1.9.26-2.81a1.74,1.74,0,0,1,.13-.15,2.9,2.9,0,0,1,.72,0c.13.23.52.28.58.57.52.05.83.5,1.27.68A4.6,4.6,0,0,1,19.79,11a.65.65,0,0,0-.08.41c.8-.7,1.17-1.84,2.16-2.34a3,3,0,0,1,1.66-.18,3.1,3.1,0,0,1,1.69.75,2.06,2.06,0,0,1,.39.73c0,.13.08.26.21.29.31-.34.54-.73.88-1a1.24,1.24,0,0,0,.44-.47c.19-.18.45-.21.6-.42a.27.27,0,0,1,.11-.05,6.58,6.58,0,0,1,1.4-.13s0,0,0,0c.44.08.83.28,1.27.36.21.24.39.5.6.73s.21.55.28.81a2.92,2.92,0,0,0,0,.78C31.64,11.45,31.43,11.58,31.36,11.71Z" transform="translate(-0.52 -3.34)"/><path class="cls-2" d="M34,21.26A.85.85,0,0,0,33.7,21,16.51,16.51,0,0,1,33,19.44c-.13-.32,0-.68-.24-1a12.77,12.77,0,0,1,0-3.15,3.29,3.29,0,0,0,.18-1.17c.24-.1.08-.47.21-.65a.69.69,0,0,0,.18-.52,3.52,3.52,0,0,0,.19-.52,2.59,2.59,0,0,0,.33-.88A14.49,14.49,0,0,1,35,9.66c.13-.21.47-.26.47-.55a6.36,6.36,0,0,1,1.35-.23.58.58,0,0,1,.5,0,2,2,0,0,0,.83.21c0,.21.18.26.34.37a1.51,1.51,0,0,1,.49.39c.1.6.68,1,.6,1.66,0,.24-.29.37-.16.57s-.1.21-.15.29c.07.39-.24.62-.47.86a5.08,5.08,0,0,1-2.37.91c-.23,0-.26.28-.36.44-.31.31-.26.81-.39,1.2s-.18,1-.34,1.45a9.44,9.44,0,0,0,.08,1.69,2.37,2.37,0,0,0,.36,1.25c.21.29.57.34.78.57.24,0,.55.29.7,0a1.4,1.4,0,0,1,1.2-.37,1.5,1.5,0,0,1,.44,1.15,4.46,4.46,0,0,1-.57.49l-.13.11a.59.59,0,0,0-.16.1,1.1,1.1,0,0,1-.65-.05c-.1.13,0,.44-.39.26-.13,0-.2.13-.31.15a10.56,10.56,0,0,0-1.19-.2c-.29-.39-.84-.45-1.12-.81A.55.55,0,0,0,34,21.26ZM37,12.62c.33,0,.52-.31.75-.46a2.44,2.44,0,0,0,.39-.91c0-.19.1-.42-.08-.47-.15.41-.44.73-.62,1.12A1.5,1.5,0,0,0,37,12.62Z" transform="translate(-0.52 -3.34)"/></g><g class="cls-1"><path class="cls-3" d="M52.41,10.13c.05.18-.1.39,0,.6s-.08.33-.13.49,0,.52-.23.6,0,.54-.29.65a3.17,3.17,0,0,1-.36.65c-.06.31-.37.47-.5.75a4.28,4.28,0,0,1-.67.91c0,.34-.58.29-.52.65-.24.05-.32.34-.5.44-.34.16-.54.47-.88.63s-.47.44-.73.62-.39.18-.49.39c-.63.29-1,.89-1.62,1.17a.52.52,0,0,0-.2.26c.13.16.39-.08.54,0,.37,0,.78-.1,1.12.11a1.52,1.52,0,0,1,.52,0c.18.05.42-.1.6.05.34.16.73,0,1.09.16a3.55,3.55,0,0,1,.73.67c.21.29.21.76.54,1,0,.28,0,.59-.05.91h0a.07.07,0,0,1,0,.07l0,0c-.13.13,0,.36-.21.44-.44.34-1,0-1.48.08-.6-.23-1.3.08-1.9-.26a3.76,3.76,0,0,1-1.41.13c-.31.1-.7,0-.91.26-.23-.08-.44.08-.65.1a3.28,3.28,0,0,0-.83.37c-.23.1-.36-.08-.49-.16s-.34-.13-.44-.26-.24-.41-.45-.52c0-.31-.46-.39-.52-.67s-.41-.29-.28-.6a3.9,3.9,0,0,1,0-1c-.05-.32.16-.52.26-.78a4.42,4.42,0,0,1,.37-.76,2.62,2.62,0,0,0,.54-.7,1.06,1.06,0,0,1,.39-.42c.57-.44,1-1,1.56-1.43a3.39,3.39,0,0,0,.6-.49C45,14.83,45.5,14.47,46,14a7.49,7.49,0,0,0,1.79-1.72,10.9,10.9,0,0,0,1.36-1.87,2.88,2.88,0,0,0,.39-.81c.23-.2.2-.59.36-.85a4.21,4.21,0,0,0-.26-2c-.08-.25-.39-.31-.6-.41a3.35,3.35,0,0,0-2,0c-.18,0-.26.18-.41.23a.7.7,0,0,0-.6.21c-.31.08-.49.34-.73.55s-.36.21-.47.41a2.28,2.28,0,0,0-.67.86,1.6,1.6,0,0,0-.29.89c.05,0,.24-.06.24,0-.21-.16-.34,0-.37.18s-.23.23-.1.47a3,3,0,0,0,.8.31c.24.26.73.23.86.62,0,.19.37.13.34.37a1,1,0,0,1-.44,1.4c-.26-.08-.55.08-.81-.1s-.62-.08-.86-.26a1.14,1.14,0,0,0-.54-.37,4.14,4.14,0,0,1-1.38-1.32c-.1-.21-.1-.44-.26-.6a4.4,4.4,0,0,0-.18-.55,5.18,5.18,0,0,1-.05-1.84c.15-.24.05-.57.28-.76a1,1,0,0,1,.39-.52c-.1-.23.11-.41.24-.57.31-.26.52-.6.83-.83a3.49,3.49,0,0,1,.86-.68c.13-.1.44-.39-.08-.2l0-.06c.18,0,.5,0,.65,0,.18-.21.5-.21.73-.34s.47-.1.62-.26A.5.5,0,0,1,46,3.55,6.82,6.82,0,0,1,49,4c.29.11.55.34.86.31.08,0,.08.11.1.13a.6.6,0,0,0,.42.18A8.58,8.58,0,0,1,51.55,6a2.47,2.47,0,0,1,.29.47c0,.1,0,.23.16.28.18.29.15.71.31,1,.08.13-.05.26,0,.39a1.81,1.81,0,0,1,.1.83c.08.21-.13.57.16.62v.06A.41.41,0,0,0,52.41,10.13Z" transform="translate(-0.52 -3.34)"/></g><g class="cls-1"><path class="cls-2" d="M62.32,13.14a2.16,2.16,0,0,1-.42.86c-.36.26-.59.63-1,.86-.19.26-.5.05-.68-.08-.42-.08-.57-.47-.78-.78,0-.23-.13-.47,0-.7s-.18-.65,0-1c.05-.13.26-.15.28-.28-.31,0-.57-.19-.88-.19a2.09,2.09,0,0,0-.49.13c-.24.19-.55.16-.78.29s-.32.16-.45.26a2.62,2.62,0,0,1-.62.26c-.16.23-.49.36-.47.7a15,15,0,0,1,2.16.68c.29.23.65.31,1,.54a4,4,0,0,0,.65.47c0,.24.29.26.42.39a7.82,7.82,0,0,1,1.25,1.85c.1.34.15.67.26,1s-.06.65,0,1a2.58,2.58,0,0,1-.39,1.23.79.79,0,0,1-.26.31c0,.1,0,.23-.16.26s-.18.28-.36.36-.52.31-.78.5a11.87,11.87,0,0,1-1.87.46c-.13-.05-.29-.18-.39-.05a5.77,5.77,0,0,1-.94.08,8,8,0,0,1-1.3-.39c-.18-.13-.31-.31-.47-.44-.31-.29-.7-.5-.88-.91a3.17,3.17,0,0,1-.1-2.13c0-.21.26-.29.41-.39a5.06,5.06,0,0,1,.37.41,2.16,2.16,0,0,0,1.87.63,4.63,4.63,0,0,0,2.6-.68c.23-.13.52-.31.54-.6a2.88,2.88,0,0,0-.41-.49c-.24-.11-.52-.11-.7-.29-.47-.1-.91-.44-1.41-.41s-1-.45-1.58-.55c-.19-.23-.58-.18-.63-.49-.18-.08-.21-.29-.34-.42a7.53,7.53,0,0,1-.46-1,5.53,5.53,0,0,1,.07-3,4.86,4.86,0,0,1,1.1-1.56c.36-.16.72-.37,1.09-.58-.16-.23.26-.05.39-.13.31-.21.73-.18,1.06-.36.52-.05,1,.08,1.54.05a3.07,3.07,0,0,1,.57.29.43.43,0,0,0,.18.05.91.91,0,0,0,.16.13.1.1,0,0,0,.08.05v0c.36.21.54.65.93.78a4,4,0,0,1,.91,1.4A6.41,6.41,0,0,1,62.32,13.14Z" transform="translate(-0.52 -3.34)"/><path class="cls-2" d="M73.16,15a10.92,10.92,0,0,0-.08,1.14c-.13.37,0,.81-.23,1.15a3.65,3.65,0,0,1-.34,1c-.26.29-.26.78-.6,1a3.29,3.29,0,0,1-.72,1c-.29,0-.45.28-.68.39a1.3,1.3,0,0,1-.81.13.32.32,0,0,0-.23-.13.32.32,0,0,0-.18,0,.66.66,0,0,0-.24,0c-.07-.06-.26,0-.36-.08-.29-.08-.62-.13-.75-.44-.29,0-.29-.37-.52-.47s-.11-.31-.26-.39-.08-.11-.08-.18c.21-.21.49-.11.75-.13a1.37,1.37,0,0,0,1-.42,3.37,3.37,0,0,0,.52-1.12,5,5,0,0,0,.52-1.58c.07-.19-.08-.39,0-.55,0-.81.21-1.61.13-2.42,0-.52,0-1.06.05-1.58A1.79,1.79,0,0,0,70,10.7a3.35,3.35,0,0,0-.72.05,3,3,0,0,0-1,1.15A3,3,0,0,0,67.42,13c-.19.32-.86.11-.68.65-.08.26.1.65-.1.89V17.2c-.16.26,0,.55-.06.81s.06.23,0,.36c-.1.31.08.62,0,.94a7.88,7.88,0,0,0,0,1c-.1.28.18.57,0,.86s0,.72,0,1.06c0,.81.11,1.61.19,2.42.18.6.13,1.25.31,1.85.08.28.05.59.15.85h0s0,.06,0,.08v.05c-.13.16,0,.47-.24.63a2.66,2.66,0,0,1-1.19.36c-.26-.21-.6-.13-.86-.26a3.24,3.24,0,0,0-.55-.78,1.42,1.42,0,0,0-.08-.18.39.39,0,0,0,0-.26.6.6,0,0,0-.18-.39,4.69,4.69,0,0,1-.1-.62A13.3,13.3,0,0,1,64,24.38c-.23-.68-.13-1.41-.34-2.08A10.9,10.9,0,0,0,63.52,21c-.13,0-.06-.08,0-.15a26,26,0,0,0-.13-3.18c.07-.57,0-1.17.07-1.74,0-.8-.07-1.61,0-2.42a4.3,4.3,0,0,0,.08-1.3,18,18,0,0,1,.2-2.93c0-.16.26-.19.19-.34l.7-.08c.57-.18,1.12.18,1.69.16,0,.15.15.18.26.26a.88.88,0,0,1,.31.52c.21.15.16.46.21.7a4,4,0,0,1,.7-.6.49.49,0,0,0,.36-.26.76.76,0,0,0,.32-.08c.23-.18.52-.21.75-.36.47,0,.94,0,1.4,0a4.09,4.09,0,0,1,.76.08.15.15,0,0,1,.08.05,1.45,1.45,0,0,1,.91.6c0,.13.23.15.28.28s.31.32.26.58c.26.31.21.8.37,1.17-.19.18,0,.44,0,.67a1,1,0,0,0-.08.37c.13.28-.08.59,0,.88S73.16,14.65,73.16,15Z" transform="translate(-0.52 -3.34)"/><path class="cls-2" d="M75.76,21.26a1,1,0,0,0-.34-.29,14.22,14.22,0,0,1-.72-1.53c-.13-.32-.06-.68-.24-1a12.77,12.77,0,0,1,0-3.15,3.29,3.29,0,0,0,.18-1.17c.24-.1.08-.47.21-.65A.73.73,0,0,0,75,13a2.65,2.65,0,0,0,.18-.52,2.41,2.41,0,0,0,.34-.88,12.72,12.72,0,0,1,1.25-1.9c.13-.21.47-.26.47-.55a6.36,6.36,0,0,1,1.35-.23.56.56,0,0,1,.49,0,2,2,0,0,0,.84.21c0,.21.18.26.33.37a1.45,1.45,0,0,1,.5.39c.1.6.67,1,.6,1.66,0,.24-.29.37-.16.57s-.1.21-.16.29c.08.39-.23.62-.46.86a5.13,5.13,0,0,1-2.37.91c-.23,0-.26.28-.36.44-.32.31-.26.81-.39,1.2s-.19,1-.34,1.45a8.59,8.59,0,0,0,.08,1.69,2.37,2.37,0,0,0,.36,1.25c.21.29.57.34.78.57.23,0,.55.29.7,0a1.4,1.4,0,0,1,1.2-.37,1.53,1.53,0,0,1,.44,1.15,4.46,4.46,0,0,1-.57.49l-.13.11a.47.47,0,0,0-.16.1,1.1,1.1,0,0,1-.65-.05c-.1.13,0,.44-.39.26-.13,0-.21.13-.31.15a11.12,11.12,0,0,0-1.2-.2c-.28-.39-.83-.45-1.11-.81A.58.58,0,0,0,75.76,21.26Zm2.91-8.64c.34,0,.52-.31.76-.46a2.62,2.62,0,0,0,.39-.91c0-.19.1-.42-.08-.47-.16.41-.44.73-.62,1.12A1.6,1.6,0,0,0,78.67,12.62Z" transform="translate(-0.52 -3.34)"/><path class="cls-2" d="M91.34,16.21a6,6,0,0,1-.21,1.33c-.08.36,0,.78-.24,1.12s0,.72-.13,1.09,0,.65-.18.91.13.47-.13.54-.21.39,0,.45a1.21,1.21,0,0,0-.18.05.91.91,0,0,1-.49.36,3.52,3.52,0,0,1-1.17,0,4,4,0,0,1-.68.41A6.42,6.42,0,0,1,85,22.14c-.23-.21-.54-.26-.78-.44,0,0-.05,0-.07-.05l0,0a.74.74,0,0,1-.13-.08c0-.18-.24-.21-.31-.34a4.56,4.56,0,0,1-1.17-2.26c-.13-.36,0-.75-.16-1.12.11-.46.24-.91.34-1.37.23-.21.26-.55.49-.78a.79.79,0,0,1,.16-.39c.29-.19.41-.55.7-.76s.52-.26.65-.52a2.07,2.07,0,0,1,1.43-.54,4.1,4.1,0,0,1,2,.23c.26,0,.08-.52.18-.68,0-.41-.1-.8-.13-1.22-.1-.26-.31-.6-.67-.49s-.37.36-.65.28a.7.7,0,0,0-.45.29,1.53,1.53,0,0,1-.91.31,2.18,2.18,0,0,1-1.27-.52c-.23-.26-.5-.52-.73-.8s.21-.45.34-.65a1.12,1.12,0,0,1,.39-.52,2.36,2.36,0,0,0,.52-.21,6.34,6.34,0,0,1,1.4-.39c0-.08.13-.11.21-.13s.29,0,.31.15c.21.08,0-.46.42-.13.26.08.68-.15.81.19a2.08,2.08,0,0,1,.91.41.84.84,0,0,1,.54.26c.21.24.6.29.7.63a3.6,3.6,0,0,1,1.07,2.15A8.53,8.53,0,0,1,91.34,16.21Zm-3.2-.65c0-.15-.16-.13-.24-.08a2.82,2.82,0,0,0-1,.55c0,.31-.44.36-.65.57a7.71,7.71,0,0,0-1,1.56c-.26.42-.08.91-.06,1.35s.65.84,1.12.94a3,3,0,0,1,.7-.26c.16-.05.34,0,.45-.13a10.83,10.83,0,0,0,.2-1.25c.24-.83.24-1.69.42-2.49C88,16,88.27,15.82,88.14,15.56Z" transform="translate(-0.52 -3.34)"/><path class="cls-2" d="M100.15,17.17a2,2,0,0,0,.57.58,11.15,11.15,0,0,1,1.54,1.69c0,.28.23.46.36.7a3,3,0,0,1,.36,1.69c-.23.49-.88.54-1.37.47a2.45,2.45,0,0,1-.73-.45,6.8,6.8,0,0,0-.57-1.06,7.16,7.16,0,0,0-1.64-2,.63.63,0,0,1-.37-.19c-.18-.05-.39-.15-.54,0-.34-.05-.68,0-1,0-.26.1-.44-.13-.67-.08-.11-.18-.52-.34-.31.13a15.14,15.14,0,0,0,.15,1.64,4.74,4.74,0,0,1,.11,1,.77.77,0,0,1,0,.52h.23c-.23.11-.18.42-.39.55a2.55,2.55,0,0,0-.47.31,2.48,2.48,0,0,0-.86.1,2.82,2.82,0,0,1-.41-.23c-.29-.13-.63-.29-.73-.62,0,0,0,0,0-.06a.07.07,0,0,1,0-.05c0-.28-.34-.47-.39-.75a27.79,27.79,0,0,1-.34-3.51,13.34,13.34,0,0,1,0-1.67c-.11-1.09.1-2.15,0-3.25,0-1.09.21-2.18.24-3.3a.9.9,0,0,0,0-.23v0c.08-.05.13-.16,0-.31a24.46,24.46,0,0,1,.52-4.42c.13-.34.08-.91.54-1,.65,0,1.28.26,1.93.23.08.06,0,.16.08.21.23.21.57.39.62.73a1,1,0,0,1,0,1c-.13.23,0,.54-.18.75.05.57-.18,1.09-.13,1.66a1.91,1.91,0,0,0-.1,1.2c0,.13-.16.26-.13.39a5.2,5.2,0,0,1-.08,1.53c0,.11.08.21,0,.29s0,.21,0,.29,0,.52,0,.78c.15-.11.2-.32.33-.45.39-.31.63-.75,1-1.06A3.91,3.91,0,0,1,99.5,9.5a4.28,4.28,0,0,1,1.82.19c.26-.11.31.13.44.26.29,0,.47.26.63.46a1.79,1.79,0,0,1,.72.91c.13.21.13.47.26.68a2,2,0,0,1-.07,1.4c0,.37-.29.63-.37,1s-.39.44-.52.72-.39.32-.52.52a3.35,3.35,0,0,1-.86.78.28.28,0,0,1-.31.19c-.1.1-.15.28-.31.28S100.12,17,100.15,17.17Zm.1-5.2c.19-.23.11-.85-.26-.7a1.94,1.94,0,0,1-.67.05c-.24.19-.65,0-.78.34a6.8,6.8,0,0,0-.91.78,8,8,0,0,0-1,1.25c-.18.39-.62.6-.78,1s0,.57-.07.86c.31-.11.59-.21.88-.34s.42-.18.62-.26A10,10,0,0,0,99,13.74C99.47,13.17,100.12,12.7,100.25,12Z" transform="translate(-0.52 -3.34)"/></g></svg>